<?xml version="1.0" encoding="UTF-8"?>
<svg id="Layer_1" xmlns="http://www.w3.org/2000/svg" version="1.1" viewBox="0 0 82 85">
  <!-- Generator: Adobe Illustrator 29.7.1, SVG Export Plug-In . SVG Version: 2.1.1 Build 8)  -->
  <path d="M41,15.01l16.69,28.85H24.31l16.69-28.85Z" fill="#fff" fill-rule="evenodd"/>
  <path d="M31.69,25.55h-5.13l-14.76,25.56h27.81v-4.45h-20.11l12.19-21.11Z" fill="#fff"/>
  <path d="M50.31,25.55h5.13l14.76,25.56h-27.81v-4.44h20.11l-12.19-21.12Z" fill="#fff"/>
  <path d="M41,.53l-12.84,22.23h5.13l7.7-13.34,7.7,13.34h5.13L41,.53Z" fill="#fff"/>
  <path d="M26.65,61.42h-7.02c-.82,0-1.47-.67-1.46-1.48,0-.82.67-1.47,1.48-1.47h10.84v-3.46h-10.84c-3.1,0-5.12,1.85-5.12,4.69-.07,2.57,1.97,4.71,4.55,4.77.17,0,.36,0,.53-.01h7.05c1.24,0,1.85.52,1.85,1.59s-.67,1.62-1.85,1.62h-11.61v3.46h11.61c3.18,0,5.16-1.87,5.16-4.88s-1.78-4.83-5.16-4.83" fill="#fff"/>
  <path d="M60.83,55h-9.27v16.11h9.27c4.35,0,7.86-3.52,7.86-7.86v-.35c.2-4.16-3.01-7.7-7.17-7.9h-.7ZM65.23,63.02c.15,2.41-1.68,4.48-4.1,4.63h-6.12v-9.2h5.83c2.39-.04,4.36,1.87,4.4,4.27v.29" fill="#fff"/>
  <path d="M45.44,70.85h4.17l-2.59-2.41c.27-.56.41-1.19.41-1.82v-3.8h-2.85v3.36l-3.25-3.02,1.22-.67c1.31-.72,2.13-2.1,2.13-3.6,0-1.99-1.62-3.6-3.61-3.61h-2.54c-1.99,0-3.6,1.62-3.61,3.61v.4c0,1.15.48,2.26,1.32,3.03l.25.24-.83.45c-1.24.68-2.01,1.98-2.01,3.4v.56c0,2.14,1.74,3.88,3.88,3.88h5.63c.63,0,1.24-.13,1.8-.4l.43.39h.04ZM37.79,58.88c0-.41.33-.76.76-.76h2.54c.41,0,.76.33.76.76,0,.47-.25.88-.66,1.11l-2.05,1.12-.95-.88c-.27-.24-.41-.59-.41-.95v-.4ZM37.58,68c-.57,0-1.03-.47-1.03-1.03v-.56c0-.37.2-.72.53-.91l1.64-.91,3.66,3.4h-4.81Z" fill="#fff"/>
  <g>
    <path d="M34.64,78.22h-.67v1.28h.67c.19.01.36-.04.49-.17.12-.12.17-.28.17-.45s-.07-.35-.19-.47c-.13-.12-.31-.19-.48-.19Z" fill="#fff"/>
    <path d="M47,78.22h-.66v1.38h.61c.19,0,.37-.05.51-.19s.2-.31.19-.48c.01-.37-.28-.7-.66-.71Z" fill="#fff"/>
    <path d="M75.65,75.02H6.35l-5.45,9.45h80.22l-5.45-9.45ZM30.25,81.45c-.2.19-.44.33-.68.43-.35.13-.72.2-1.1.19-.33,0-.67-.05-.98-.19-.28-.11-.52-.28-.74-.49-.2-.21-.36-.45-.45-.74-.11-.29-.16-.6-.16-.91s.05-.63.16-.91c.11-.28.27-.53.47-.75.43-.45,1.03-.71,1.64-.7.2,0,.4.03.6.07.17.04.33.11.49.19.15.08.28.17.4.28.11.11.21.23.31.35l-.59.52c-.13-.2-.29-.36-.49-.49-.21-.13-.45-.2-.71-.19-.2,0-.4.04-.59.13-.17.08-.32.2-.44.35-.12.15-.21.32-.28.51-.07.2-.09.4-.09.62,0,.23.04.44.12.64.07.19.19.35.32.49.13.13.29.24.47.32.19.07.37.11.57.11.33.03.68-.08.95-.29v-.7h-.79v-.68h-.01v-.04s.01.04.01.04h1.58v1.85ZM35.49,81.97l-.9-1.75h-.63v1.75h-.8v-4.45h1.47c.24,0,.48.04.71.13.17.07.33.19.47.32.12.12.21.27.27.43.05.15.08.29.08.44,0,.25-.05.52-.19.75-.13.23-.33.4-.56.52l1.03,1.86h-.95ZM42.6,80.32c0,.24-.04.47-.12.7-.08.21-.2.4-.35.56-.16.16-.36.29-.57.37-.49.19-1.04.19-1.54,0-.21-.08-.4-.21-.57-.37-.16-.16-.28-.35-.35-.56-.08-.23-.12-.45-.12-.7v-2.81h.84v2.66c0,.16.01.31.05.45.03.12.08.24.16.35.08.09.19.17.29.23.29.11.63.11.92,0,.12-.04.21-.12.29-.23.08-.11.13-.21.16-.35.04-.15.05-.31.05-.45v-2.66h.84v2.81ZM48.38,79.55c-.08.17-.2.32-.35.44-.15.11-.31.2-.48.25-.17.05-.35.08-.52.08h-.67v1.66h-.8v-4.45h-.01s1.43-.01,1.43-.01c.27,0,.52.04.76.15.19.08.35.2.47.35.11.13.19.28.24.45.04.15.07.29.07.44,0,.23-.04.44-.13.64ZM55.48,80.63c-.12.28-.28.53-.49.75s-.45.39-.74.51c-.28.12-.59.19-.91.19s-.62-.05-.91-.19c-.28-.12-.52-.29-.74-.51s-.37-.47-.49-.75c-.24-.59-.24-1.24,0-1.83.12-.28.28-.53.49-.75s.45-.39.74-.49c.29-.12.6-.19.91-.19s.61.05.91.19c1.18.52,1.72,1.89,1.23,3.08Z" fill="#fff"/>
    <path d="M54.38,78.61c-.12-.15-.28-.25-.45-.33-.37-.16-.82-.16-1.19,0-.17.08-.32.2-.45.33-.12.15-.23.31-.28.49-.13.39-.13.82,0,1.2.07.19.16.36.28.51.25.31.64.48,1.04.47h.01c.4,0,.79-.16,1.04-.47.12-.15.23-.32.28-.51.13-.39.13-.82,0-1.2-.07-.19-.16-.35-.28-.49Z" fill="#fff"/>
  </g>
</svg>