<svg width="61" height="64" viewBox="0 0 61 64" fill="none" xmlns="http://www.w3.org/2000/svg">
<path fill-rule="evenodd" clip-rule="evenodd" d="M30.94 11.5801L43.42 33.1601H18.46L30.94 11.5801Z" fill="#004B45"/>
<path d="M5.02043 56.4609L0.94043 63.5309H60.9404L56.8604 56.4609H5.02043Z" fill="#004B45"/>
<path d="M23.9806 19.4609H20.1406L9.10059 38.5809H29.9006V35.2509H14.8606L23.9806 19.4609Z" fill="#C6C6C5"/>
<path d="M37.9005 19.4609H41.7405L52.7805 38.5809H31.9805V35.2609H47.0205L37.9005 19.4609Z" fill="#8C8B8B"/>
<path d="M30.9408 0.75L21.3408 17.38H25.1808L30.9408 7.4L36.7008 17.38H40.5408L30.9408 0.75Z" fill="#515150"/>
<mask id="mask0_90_1442" style="mask-type:luminance" maskUnits="userSpaceOnUse" x="0" y="0" width="61" height="64">
<path d="M60.9404 0.75H0.94043V63.52H60.9404V0.75Z" fill="white"/>
</mask>
<g mask="url(#mask0_90_1442)">
<path d="M20.2106 46.2902H14.9606C14.3506 46.2902 13.8606 45.7902 13.8706 45.1802C13.8706 44.5702 14.3706 44.0802 14.9806 44.0802H23.0906V41.4902H14.9806C12.6606 41.4902 11.1506 42.8702 11.1506 45.0002C11.1006 46.9202 12.6206 48.5202 14.5506 48.5702C14.6806 48.5702 14.8206 48.5702 14.9506 48.5602H20.2206C21.1506 48.5602 21.6006 48.9502 21.6006 49.7502C21.6006 50.5502 21.1006 50.9602 20.2206 50.9602H11.5406V53.5502H20.2206C22.6006 53.5502 24.0806 52.1502 24.0806 49.9002C24.0806 47.6502 22.7506 46.2902 20.2206 46.2902" fill="#515150"/>
<path d="M45.7708 41.4902H38.8408V53.5402H45.7708C49.0208 53.5402 51.6508 50.9102 51.6508 47.6602C51.6508 47.5702 51.6508 47.4902 51.6508 47.4002C51.8008 44.2902 49.4008 41.6402 46.2908 41.4902C46.1208 41.4902 45.9408 41.4902 45.7708 41.4902ZM49.0608 47.4902C49.1708 49.2902 47.8008 50.8402 45.9908 50.9502C45.9208 50.9502 45.8408 50.9502 45.7708 50.9502H41.4108V44.0702H45.7708C47.5608 44.0402 49.0308 45.4702 49.0608 47.2602C49.0608 47.3302 49.0608 47.4102 49.0608 47.4802" fill="#515150"/>
<path d="M34.2602 53.3412H37.3802L35.4402 51.5412C35.6402 51.1212 35.7502 50.6512 35.7502 50.1812V47.3412H33.6202V49.8512L31.1902 47.5912L32.1002 47.0912C33.0802 46.5512 33.6902 45.5212 33.6902 44.4012C33.6902 42.9112 32.4802 41.7112 30.9902 41.7012H29.0902C27.6002 41.7012 26.4002 42.9112 26.3902 44.4012V44.7012C26.3902 45.5612 26.7502 46.3912 27.3802 46.9712L27.5702 47.1512L26.9502 47.4912C26.0202 48.0012 25.4502 48.9712 25.4502 50.0312V50.4512C25.4502 52.0512 26.7502 53.3512 28.3502 53.3512H32.5602C33.0302 53.3512 33.4902 53.2512 33.9102 53.0512L34.2302 53.3412H34.2602ZM28.5402 44.3912C28.5402 44.0812 28.7902 43.8212 29.1102 43.8212H31.0102C31.3202 43.8212 31.5802 44.0712 31.5802 44.3912C31.5802 44.7412 31.3902 45.0512 31.0902 45.2212L29.5602 46.0612L28.8502 45.4012C28.6502 45.2212 28.5402 44.9612 28.5402 44.6912V44.3912ZM28.3802 51.2112C27.9502 51.2112 27.6102 50.8612 27.6102 50.4412V50.0212C27.6102 49.7412 27.7602 49.4812 28.0102 49.3412L29.2402 48.6612L31.9802 51.2012H28.3902L28.3802 51.2112Z" fill="#004B45"/>
<path d="M21.7111 59.8908H22.9011V61.2708C22.7511 61.4108 22.5711 61.5208 22.3911 61.5908C22.1311 61.6908 21.8511 61.7408 21.5711 61.7308C21.3211 61.7308 21.0711 61.6908 20.8411 61.5908C20.6311 61.5108 20.4511 61.3808 20.2911 61.2208C20.1411 61.0608 20.0211 60.8808 19.9511 60.6708C19.8711 60.4508 19.8311 60.2208 19.8311 59.9908C19.8311 59.7608 19.8711 59.5208 19.9511 59.3108C20.0311 59.1008 20.1511 58.9108 20.3011 58.7508C20.6211 58.4108 21.0711 58.2208 21.5311 58.2308C21.6811 58.2308 21.8311 58.2508 21.9811 58.2808C22.1111 58.3108 22.2311 58.3608 22.3511 58.4208C22.4611 58.4808 22.5611 58.5508 22.6511 58.6308C22.7311 58.7108 22.8111 58.8008 22.8811 58.8908L22.4411 59.2808C22.3411 59.1308 22.2211 59.0108 22.0711 58.9108C21.9111 58.8108 21.7311 58.7608 21.5411 58.7708C21.3911 58.7708 21.2411 58.8008 21.1011 58.8708C20.9711 58.9308 20.8611 59.0208 20.7711 59.1308C20.6811 59.2408 20.6111 59.3708 20.5611 59.5108C20.5111 59.6608 20.4911 59.8108 20.4911 59.9708C20.4911 60.1408 20.5211 60.3008 20.5811 60.4508C20.6311 60.5908 20.7211 60.7108 20.8211 60.8208C20.9211 60.9208 21.0411 61.0008 21.1711 61.0608C21.3111 61.1108 21.4511 61.1408 21.6011 61.1408C21.8511 61.1608 22.1111 61.0808 22.3111 60.9208V60.4008H21.7211V59.8608L21.7111 59.8908Z" fill="white"/>
<path d="M25.0811 58.3301H26.1811C26.3611 58.3301 26.5411 58.3601 26.7111 58.4301C26.8411 58.4801 26.9611 58.5701 27.0611 58.6701C27.1511 58.7601 27.2211 58.8701 27.2611 58.9901C27.3011 59.1001 27.3211 59.2101 27.3211 59.3201C27.3211 59.5101 27.2811 59.7101 27.1811 59.8801C27.0811 60.0501 26.9311 60.1801 26.7611 60.2701L27.5311 61.6601H26.8211L26.1511 60.3501H25.6811V61.6601H25.0811V58.3301ZM26.1811 59.8301C26.3211 59.8301 26.4511 59.7901 26.5511 59.6901C26.6411 59.6001 26.6811 59.4801 26.6811 59.3501C26.6811 59.2201 26.6311 59.0901 26.5411 59.0001C26.4411 58.9101 26.3111 58.8601 26.1811 58.8601H25.6811V59.8201H26.1811V59.8301Z" fill="white"/>
<path d="M29.4307 58.3301H30.0607V60.3201C30.0607 60.4401 30.0707 60.5501 30.1007 60.6601C30.1207 60.7501 30.1607 60.8401 30.2207 60.9201C30.2807 60.9901 30.3607 61.0501 30.4407 61.0901C30.6607 61.1701 30.9107 61.1701 31.1307 61.0901C31.2207 61.0601 31.2907 61.0001 31.3507 60.9201C31.4107 60.8401 31.4507 60.7601 31.4707 60.6601C31.5007 60.5501 31.5107 60.4301 31.5107 60.3201V58.3301H32.1407V60.4301C32.1407 60.6101 32.1107 60.7801 32.0507 60.9501C31.9907 61.1101 31.9007 61.2501 31.7907 61.3701C31.6707 61.4901 31.5207 61.5901 31.3607 61.6501C30.9907 61.7901 30.5807 61.7901 30.2107 61.6501C30.0507 61.5901 29.9107 61.4901 29.7807 61.3701C29.6607 61.2501 29.5707 61.1101 29.5207 60.9501C29.4607 60.7801 29.4307 60.6101 29.4307 60.4301V58.3301Z" fill="white"/>
<path d="M34.3408 58.3301H35.4108C35.6108 58.3301 35.8008 58.3601 35.9808 58.4401C36.1208 58.5001 36.2408 58.5901 36.3308 58.7001C36.4108 58.8001 36.4708 58.9101 36.5108 59.0401C36.5408 59.1501 36.5608 59.2601 36.5608 59.3701C36.5608 59.5401 36.5308 59.7001 36.4608 59.8501C36.4008 59.9801 36.3108 60.0901 36.2008 60.1801C36.0908 60.2601 35.9708 60.3301 35.8408 60.3701C35.7108 60.4101 35.5808 60.4301 35.4508 60.4301H34.9508V61.6701H34.3508V58.3401L34.3408 58.3301ZM35.4008 59.8901C35.5408 59.8901 35.6808 59.8501 35.7808 59.7501C35.8808 59.6501 35.9308 59.5201 35.9208 59.3901C35.9308 59.1101 35.7108 58.8701 35.4308 58.8601C35.4208 58.8601 35.4008 58.8601 35.3908 58.8601H34.9408V59.8901H35.4008Z" fill="white"/>
<path d="M40.1705 61.7407C39.9405 61.7407 39.7105 61.7007 39.4905 61.6007C39.2805 61.5107 39.1005 61.3807 38.9405 61.2207C38.7805 61.0607 38.6605 60.8707 38.5705 60.6607C38.3905 60.2207 38.3905 59.7307 38.5705 59.2907C38.6605 59.0807 38.7805 58.8907 38.9405 58.7307C39.1005 58.5707 39.2805 58.4407 39.4905 58.3607C39.7105 58.2707 39.9405 58.2207 40.1705 58.2207C40.4005 58.2207 40.6305 58.2607 40.8505 58.3607C41.7305 58.7507 42.1405 59.7707 41.7705 60.6607C41.6805 60.8707 41.5605 61.0607 41.4005 61.2207C41.2405 61.3807 41.0605 61.5107 40.8505 61.6007C40.6405 61.6907 40.4105 61.7407 40.1705 61.7407ZM40.1705 61.1507C40.4705 61.1507 40.7605 61.0307 40.9505 60.8007C41.0405 60.6907 41.1206 60.5607 41.1606 60.4207C41.2606 60.1307 41.2606 59.8107 41.1606 59.5207C41.1106 59.3807 41.0405 59.2607 40.9505 59.1507C40.8605 59.0407 40.7405 58.9607 40.6105 58.9007C40.3305 58.7807 40.0005 58.7807 39.7205 58.9007C39.5905 58.9607 39.4805 59.0507 39.3805 59.1507C39.2905 59.2607 39.2105 59.3807 39.1705 59.5207C39.0705 59.8107 39.0705 60.1307 39.1705 60.4207C39.2205 60.5607 39.2905 60.6907 39.3805 60.8007C39.5705 61.0307 39.8605 61.1607 40.1605 61.1507" fill="white"/>
</g>
</svg>
